<?xml version="1.0" encoding="UTF-8" standalone="no"?>
<svg
   xmlns:dc="http://purl.org/dc/elements/1.1/"
   xmlns:cc="http://creativecommons.org/ns#"
   xmlns:rdf="http://www.w3.org/1999/02/22-rdf-syntax-ns#"
   xmlns:svg="http://www.w3.org/2000/svg"
   xmlns="http://www.w3.org/2000/svg"
   style="enable-background:new"
   viewBox="0 0 724.04229 882.44077"
   height="882.4408"
   width="724.0423"
   id="svg355"
   version="1.1">
  <metadata
     id="metadata361">
    <rdf:RDF>
      <cc:Work
         rdf:about="">
        <dc:format>image/svg+xml</dc:format>
        <dc:type
           rdf:resource="http://purl.org/dc/dcmitype/StillImage" />
        <dc:title></dc:title>
      </cc:Work>
    </rdf:RDF>
  </metadata>
  <defs
     id="defs359" />
  <g
     transform="translate(-120.09736,-128.15051)"
     style="display:inline"
     id="layer1" />
  <g
     transform="translate(-120.09736,-128.15051)"
     style="display:inline"
     id="layer2">
    <g
       id="g4967">
      <path
         style="display:inline;fill:#0e97d5;fill-opacity:1;stroke-width:1.33333337"
         d="m 606.09864,1009.8464 c -9.47915,-1.1047 -27.9034,-5.727 -38.79178,-9.7322 -43.94762,-16.16505 -80.94116,-49.71455 -102.43047,-92.89415 -5.2376,-10.5242 -11.22618,-26.2643 -14.17848,-37.266 -0.30205,-1.1256 -2.98932,-1.0204 -10.17156,0.398 -49.1153,14.9546 -1.82138,-47.9849 1.32518,-54.53487 7.25766,-15.09943 11.42516,-22.33334 12.86633,-22.33334 1.17239,0 17.26267,12.36696 35.75619,27.48215 24.17695,19.76036 33.62459,28.25426 33.62459,30.22996 0,2.356 -1.52135,3.0731 -10.66667,5.0279 -5.86667,1.254 -13.81667,2.7068 -17.66667,3.2284 -3.85,0.5217 -6.99706,1.3422 -6.99349,1.8234 0.0159,2.1294 10.106,20.2824 15.40337,27.7119 16.62698,23.3191 44.36344,38.6386 64.99995,35.9011 23.27287,-3.0873 40.73745,-28.1881 40.86857,-58.7381 0.022,-5.1334 -0.5799,-11.5657 -1.33765,-14.2941 -2.38759,-8.5969 -4.00131,-9.0393 -32.97031,-9.0393 -26.8076,0 -32.18296,-0.954 -34.1422,-6.0597 -0.45553,-1.18711 -0.82824,-8.13658 -0.82824,-15.44326 0,-12.32717 0.23594,-13.52083 3.27274,-16.55761 3.24505,-3.24507 3.48684,-3.27274 28.60392,-3.27274 16.09341,0 26.54548,-0.55326 28.6609,-1.51712 4.9203,-2.24182 6.12911,-7.60372 6.12911,-27.18674 V 755.1407 l -4.22776,-1.75119 c -2.32527,-0.96316 -7.72951,-5.17767 -12.00944,-9.36557 -22.9932,-22.49886 -22.80808,-58.45008 0.41505,-80.60119 8.79134,-8.38552 18.09768,-13.09785 30.06917,-15.22573 23.42557,-4.1638 48.96472,9.39998 59.47394,31.58648 5.55663,14.59439 6.8736,33.86936 0.78175,47.03368 -4.21944,9.0084 -14.17325,20.24646 -21.9904,24.82761 l -5.84564,3.42577 v 20.4432 20.4432 l 3.51315,2.76344 c 3.27865,2.579 5.23153,2.76344 29.25897,2.76344 25.29364,0 25.81155,0.0565 29.48687,3.2179 3.65976,3.14798 3.74101,3.52368 3.74101,17.29629 0,20.74712 1.24821,19.97602 -33.70041,20.81912 -15.99779,0.386 -28.64707,1.2681 -30.04147,2.0951 -5.87832,3.4863 -7.75747,19.2756 -4.25929,35.7882 4.10184,19.362 14.86014,34.9721 28.40602,41.2165 8.52786,3.9312 24.44922,3.7955 35.12291,-0.2994 16.09804,-6.176 31.69853,-18.9262 42.32496,-34.5921 5.1507,-7.5933 13.4806,-23.1865 13.4806,-25.235 0,-0.6065 -7.4622,-2.4666 -16.5827,-4.1336 -18.84105,-3.4435 -21.71647,-5.1945 -16.64394,-10.1352 8.80795,-8.579 65.87884,-54.03781 67.84134,-54.03781 1.5685,0 4.4259,4.58331 9.3515,15 25.2901,53.48421 29.3781,62.57031 28.6684,63.71871 -1.1682,1.8901 -6.4695,1.5561 -20.6233,-1.2992 -6.9605,-1.4042 -12.7126,-2.448 -12.7824,-2.3196 -0.07,0.1284 -2.378,6.8334 -5.1292,14.9001 -10.0517,29.4723 -24.9547,53.3366 -46.6285,74.6667 -27.08708,26.6574 -63.73815,45.35465 -99.46268,50.74005 -11.59004,1.7472 -41.89324,2.2902 -53.34184,0.9558 z m 35.19453,-287.38449 c 6.68132,-3.83045 10.1388,-10.3416 10.1388,-19.09343 0,-22.08585 -30.13541,-29.22082 -40.18849,-9.51516 -9.8095,19.2282 11.32137,39.34568 30.04969,28.60859 z"
         id="path365" />
      <path
         style="display:inline;fill:#000000;stroke-width:1.33333337"
         d="m 129.97942,926.33504 c -2.2622,-1.02882 -5.4122,-3.52214 -7,-5.5407 -2.76306,-3.51266 -2.88671,-4.93526 -2.88194,-33.15698 0.004,-27.22345 0.21154,-29.82564 2.69586,-33.90042 3.26773,-5.35972 9.69906,-8.2531 18.34478,-8.2531 16.45491,0 33.65523,-5.73938 50.53412,-16.86218 13.06789,-8.61143 22.18751,-18.6086 30.58202,-33.52483 7.44149,-13.22277 10.89045,-16.28144 18.35139,-16.27467 7.97213,0.007 13.40462,3.9226 17.9677,12.9499 13.07859,25.87374 35.97006,44.06905 64.52915,51.29104 16.00469,4.04724 37.2162,3.03318 53.65668,-2.56515 6.6,-2.24744 12.15489,-3.94012 12.34421,-3.76152 0.18932,0.17861 -1.75676,4.87204 -4.32461,10.42984 -6.85923,14.84589 -8.01893,21.65309 -5.41833,31.80424 2.47154,9.64739 5.899,15.68101 11.66276,20.53089 5.80084,4.8811 15.88889,9.76218 22.29244,10.78615 2.99393,0.47875 5.44352,1.35065 5.44352,1.93757 0,1.5383 -13.32653,6.348 -27.9596,10.09096 -48.84559,12.4941 -107.79028,2.76294 -142.41584,-23.5114 l -7.04212,-5.34364 -6.95788,5.2351 c -9.47022,7.12536 -24.90272,15.15708 -36.9579,19.23442 -22.62468,7.6522 -59.10513,12.19803 -67.44641,8.40448 z M 327.66319,819.47828 c -10.02601,-2.75568 -15.12424,-6.92409 -36.99274,-30.24596 -57.3498,-61.16126 -97.02576,-118.27721 -128.10521,-184.41514 -6.99498,-14.88554 -19.85004,-47.58303 -21.79558,-55.43819 -0.84738,-3.42128 -0.41388,-3.61901 88.23564,-40.24641 48.99796,-20.24452 113.98721,-47.10672 144.42055,-59.69375 30.43332,-12.58704 55.99825,-23.15769 56.81093,-23.49036 1.69234,-0.69273 2.23334,5.16776 5.18816,56.20204 1.10394,19.06667 2.91283,49.66667 4.01975,68 1.10693,18.33333 2.59747,43.83333 3.31231,56.66667 1.62242,29.12732 5.00105,86.96132 6.11454,104.66666 0.4612,7.33334 1.01719,13.52592 1.23551,13.76131 0.53697,0.57893 1.61157,-14.90667 4.00825,-57.76131 1.10734,-19.8 2.31444,-40.5 2.68247,-46 0.36801,-5.5 1.56143,-25.6 2.65201,-44.66666 1.09059,-19.06667 2.3027,-40.06667 2.69356,-46.66667 0.39086,-6.6 1.58863,-26.88541 2.66171,-45.07869 2.69519,-45.69515 3.63295,-59.58798 4.02211,-59.58798 0.1836,0 9.54341,3.83976 20.79957,8.5328 11.25618,4.69306 67.26578,27.85328 124.46578,51.4672 123.42755,50.95468 145.07131,59.9602 145.75799,60.64688 0.69903,0.69903 -5.76584,20.07767 -11.33956,33.99068 -7.91311,19.75252 -27.0629,58.58671 -36.68582,74.39576 l -2.65796,4.36667 -4.14094,-6.36667 c -6.0707,-9.33361 -20.46127,-22.971 -30.32108,-28.7341 -4.73695,-2.76876 -13.41263,-6.61795 -19.2793,-8.55374 -19.04599,-4.81721 -37.62594,-5.56187 -54.66667,0 -14.67814,4.84327 -26.20234,11.90439 -37.40885,22.92119 -17.59652,17.29865 -25.96307,36.55837 -26.93319,62 -0.86197,22.60521 4.38822,41.04896 16.30679,57.28531 8.10602,9.91502 2.9885,7.79117 -5.63141,8.32297 -15.478,0.92505 -26.84224,7.01788 -36.33334,19.47977 l -3.33333,4.37671 -19.1618,-15.34564 c -22.02859,-17.64148 -27.44494,-20.15016 -41.3499,-19.15196 -15.9255,1.14324 -25.8904,8.36681 -34.88568,25.28867 -10.41546,19.59353 -27.8304,33.9583 -47.32468,39.03592 -9.44029,2.45888 -28.15924,2.47708 -37.04059,0.036 z M 214.75917,402.73851 v -67.92872 l 235.66667,0.33703 235.66667,0.33702 0.34567,67 c 0.2788,54.03872 0.012,67 -1.37639,67 -1.44332,0 -54.82887,-21.78266 -132.30262,-53.98282 -52.01293,-21.61798 -101.80376,-42.01718 -102.55645,-42.01718 -0.47252,0 -7.29063,2.67264 -15.15134,5.9392 -7.86072,3.26656 -58.0922,24.02044 -111.62554,46.11972 -53.53334,22.0993 -99.88334,41.29292 -103.00001,42.6525 l -5.66666,2.47197 z m 64,-130.346 c 0,-40.47032 0.94081,-45.71641 9.6953,-54.06189 2.97318,-2.83427 10.24849,-7.45808 14.18859,-9.33334 l 8.78278,-4.1801 h 140.76128 c 162.8169,0 133.86625,-1.28931 148.62861,4.02368 9.13958,4.67434 16.95058,13.95716 19.17391,22.78682 0.84338,3.34935 1.4362,20.04462 1.4362,40.44659 v 34.74291 H 450.0925 278.75917 Z m 106.66668,-12.242 v -18.66667 h -32 -32.00001 v 18.66667 18.66667 h 32.00001 32 z m 95.99999,0 V 241.48384 H 450.0925 418.75917 v 18.66667 18.66667 h 31.33333 31.33334 z m 97.33333,0 v -18.66667 h -32 -32 v 18.66667 18.66667 h 32 32 z M 388.9947,187.27491 c -0.4962,-0.4962 -0.90219,-14.00218 -0.90219,-30.01329 v -29.11111 h 62.0255 62.02551 l -0.35884,29.66667 -0.35884,29.66666 -60.76448,0.34663 c -33.42047,0.19064 -61.17046,-0.0594 -61.66666,-0.55556 z"
         id="path365-7" />
    </g>
  </g>
</svg>
