<?xml version="1.0" encoding="UTF-8"?>
<svg width="235px" height="83px" viewBox="0 0 235 83" version="1.1" xmlns="http://www.w3.org/2000/svg" xmlns:xlink="http://www.w3.org/1999/xlink">
    <!-- Generator: Sketch 47.1 (45422) - http://www.bohemiancoding.com/sketch -->
    <title>ecix-logo</title>
    <desc>Created with Sketch.</desc>
    <defs>
        <ellipse id="path-1" cx="40.7255077" cy="40.5242892" rx="40.4812059" ry="40.4242239"></ellipse>
    </defs>
    <g id="Page-1" stroke="none" stroke-width="1" fill="none" fill-rule="evenodd">
        <g id="ecix-logo">
            <g id="Group" transform="translate(1.000000, 1.000000)">
                <mask id="mask-2" fill="white">
                    <use xlink:href="#path-1"></use>
                </mask>
                <use id="Oval" fill="#FF0000" fill-rule="nonzero" xlink:href="#path-1"></use>
                <g mask="url(#mask-2)" id="Rectangle-path" fill-rule="nonzero" fill="#FFFFFF">
                    <g transform="translate(-60.279070, -31.081395)">
                        <rect transform="translate(65.501240, 32.539858) rotate(-55.424789) translate(-65.501240, -32.539858) " x="64.6082529" y="3.45954067" width="1.78597467" height="58.1606353"></rect>
                        <rect transform="translate(96.776286, 24.755010) rotate(-73.302951) translate(-96.776286, -24.755010) " x="71.3773024" y="23.8633337" width="50.7979667" height="1.7833522"></rect>
                        <rect transform="translate(45.148074, 60.318805) rotate(-14.311381) translate(-45.148074, -60.318805) " x="-0.593294473" y="59.4270638" width="91.4827365" height="1.78348303"></rect>
                        <rect transform="translate(55.303052, 105.883722) rotate(-49.924465) translate(-55.303052, -105.883722) " x="21.6181636" y="104.992007" width="67.3697772" height="1.78343009"></rect>
                        <rect transform="translate(38.901278, 75.929878) rotate(-83.563634) translate(-38.901278, -75.929878) " x="38.0083075" y="37.6852747" width="1.785941" height="76.4892059"></rect>
                        <rect transform="translate(108.385671, 55.136618) rotate(-72.019813) translate(-108.385671, -55.136618) " x="107.492668" y="35.3200578" width="1.78600443" height="39.6331204"></rect>
                        <rect transform="translate(91.277777, 75.856767) rotate(-16.858399) translate(-91.277777, -75.856767) " x="76.3953603" y="74.9650792" width="29.7648335" height="1.78337616"></rect>
                        <rect transform="translate(116.401525, 79.203853) rotate(-58.869201) translate(-116.401525, -79.203853) " x="95.3669097" y="78.3121314" width="42.06923" height="1.78344393"></rect>
                        <rect transform="translate(69.560364, 114.403712) rotate(-25.627162) translate(-69.560364, -114.403712) " x="29.6756905" y="113.512028" width="79.7693474" height="1.78336708"></rect>
                        <rect transform="translate(119.209025, 34.257610) rotate(-26.416438) translate(-119.209025, -34.257610) " x="86.0198027" y="33.3658838" width="66.3784453" height="1.78345318"></rect>
                        <rect transform="translate(127.183788, 110.435480) rotate(-58.573422) translate(-127.183788, -110.435480) " x="126.29083" y="85.0219903" width="1.78591667" height="50.8269793"></rect>
                        <rect transform="translate(138.113178, 92.456331) rotate(-19.165127) translate(-138.113178, -92.456331) " x="137.220188" y="59.4126641" width="1.78598025" height="66.0873335"></rect>
                        <rect transform="translate(83.200804, 64.624976) rotate(-68.185823) translate(-83.200804, -64.624976) " x="66.3831341" y="63.7332593" width="33.6353403" height="1.78343334"></rect>
                        <rect transform="translate(97.515544, 60.240518) rotate(-35.365175) translate(-97.515544, -60.240518) " x="96.622554" y="46.418657" width="1.78597993" height="27.6437222"></rect>
                        <rect transform="translate(92.532804, 140.944157) rotate(-73.518630) translate(-92.532804, -140.944157) " x="46.7935838" y="140.052457" width="91.4784398" height="1.78339926"></rect>
                        <rect transform="translate(138.092476, 40.409330) rotate(-62.497102) translate(-138.092476, -40.409330) " x="114.527716" y="39.5176067" width="47.1295204" height="1.78344682"></rect>
                        <rect transform="translate(91.285194, 88.655220) rotate(-59.169878) translate(-91.285194, -88.655220) " x="90.3922161" y="72.059309" width="1.78595515" height="33.1918224"></rect>
                        <rect x="104.576449" y="71.5066056" width="1.78593555" height="25.6614558"></rect>
                        <rect transform="translate(116.363524, 66.350119) rotate(-25.417034) translate(-116.363524, -66.350119) " x="104.358171" y="65.4584162" width="24.0107058" height="1.78340637"></rect>
                    </g>
                </g>
                <g mask="url(#mask-2)" id="Oval" fill-rule="nonzero" fill="#FFFFFF">
                    <g transform="translate(12.150539, 13.772965)">
                        <ellipse cx="17.0656064" cy="4.16131716" rx="4.06796432" ry="4.06223818"></ellipse>
                        <ellipse cx="4.56405753" cy="35.3711959" rx="4.06796432" ry="4.06223818"></ellipse>
                        <ellipse cx="33.0398078" cy="26.6522456" rx="4.06796432" ry="4.06223818"></ellipse>
                        <ellipse cx="54.7686903" cy="16.3480317" rx="4.06796432" ry="4.06223818"></ellipse>
                        <ellipse cx="33.0398078" cy="52.3137015" rx="4.06796432" ry="4.06223818"></ellipse>
                    </g>
                </g>
            </g>
            <circle id="Oval" stroke="#FFFFFF" stroke-width="0.1" cx="41.5" cy="41.5" r="40.5"></circle>
            <g id="Group" transform="translate(89.534884, 1.000000)" fill-rule="nonzero" fill="#000000">
                <path d="M108.434771,60.8800664 L114.736792,60.8800664 C115.336985,60.8800664 115.937177,60.5840532 116.237273,60.0906977 L125.640289,47.7568106 L135.043304,60.0906977 C135.443432,60.5840532 135.943593,60.8800664 136.543785,60.8800664 L142.845806,60.8800664 C144.446319,60.8800664 145.346608,59.1039867 144.346287,57.8212625 L131.342117,40.4551495 L144.546351,23.0890365 C145.546672,21.8063123 144.546351,20.0302326 143.04587,20.0302326 L136.743849,20.0302326 C136.143657,20.0302326 135.543464,20.3262458 135.243368,20.8196013 L125.840353,33.1534884 L116.437338,20.8196013 C116.037209,20.3262458 115.537049,20.0302326 114.936856,20.0302326 L108.634836,20.0302326 C107.034322,20.0302326 106.134034,21.8063123 107.134354,23.0890365 L120.138524,40.4551495 L106.93429,57.8212625 C105.93397,59.1039867 106.834258,60.8800664 108.434771,60.8800664 Z" id="Shape"></path>
                <path d="M96.7310184,0.197342193 C93.6300241,0.197342193 91.2292542,2.6641196 91.2292542,5.72292359 C91.2292542,8.68305648 93.7300561,11.1498339 96.7310184,11.1498339 C99.8320128,11.1498339 102.332815,8.78172757 102.332815,5.72292359 C102.332815,2.6641196 99.9320449,0.197342193 96.7310184,0.197342193 Z" id="Shape"></path>
                <path d="M99.5319166,20.0302326 L94.0301524,20.0302326 C92.9297995,20.0302326 92.1295429,20.9182724 92.1295429,21.9049834 L92.1295429,59.0053156 C92.1295429,60.0906977 93.0298316,60.8800664 94.0301524,60.8800664 L99.4318845,60.8800664 C100.532237,60.8800664 101.332494,59.9920266 101.332494,59.0053156 L101.332494,21.9049834 C101.432526,20.9182724 100.532237,20.0302326 99.5319166,20.0302326 Z" id="Shape"></path>
                <path d="M78.8252767,48.8421927 C75.9243464,51.9996678 71.522935,53.7757475 66.7213953,52.7890365 C61.6197594,51.8023256 57.6184763,47.7568106 56.7181877,42.7245847 C55.3177386,34.830897 61.5197273,27.8252492 69.2221973,27.8252492 C73.0234162,27.8252492 76.4245068,29.5026578 78.7252446,32.0681063 C79.4254691,32.758804 80.4257899,32.9561462 81.3260786,32.4627907 L85.5274258,29.7 C86.4277145,29.1079734 86.7278107,27.8252492 85.9275541,26.9372093 C81.5261427,21.6089701 74.5238974,18.451495 66.8214274,19.2408638 C56.8182197,20.3262458 48.7156215,28.2199336 47.6152686,38.0870432 C46.1147875,51.0129568 56.4180914,61.9654485 69.1221652,61.9654485 C75.8243144,61.9654485 81.9262711,58.9066445 85.8275221,54.1704319 C86.5277466,53.282392 86.3276824,51.9996678 85.4273937,51.4076412 L81.2260465,48.5461794 C80.525822,47.9541528 79.4254691,48.0528239 78.8252767,48.8421927 Z" id="Shape"></path>
                <path d="M39.1125421,27.7265781 L39.1125421,27.7265781 C35.4113553,22.8916944 29.8095589,19.6355482 23.6075702,19.1421927 C10.2032719,18.0568106 -1.00032077,29.2066445 0.200064154,42.4285714 C1.10035285,52.4930233 9.30298316,60.5840532 19.4062229,61.6694352 C28.2090457,62.5574751 36.1115798,58.2159468 40.312927,51.4076412 C41.1131836,50.1249169 40.1128629,48.5461794 38.6123817,48.5461794 L32.2103288,48.5461794 C31.7101684,48.5461794 31.210008,48.7435216 30.8098797,49.138206 C28.2090457,51.7036545 24.5078589,53.282392 20.4065437,52.8877076 C15.3049078,52.3943522 11.1035605,48.8421927 9.60307939,44.2046512 L40.4129591,44.2046512 C41.613344,44.2046512 42.6136648,43.4152824 42.8137289,42.2312292 C43.6139856,37.3963455 42.4136006,32.0681063 39.1125421,27.7265781 Z M9.70311147,36.6069767 C11.5036889,31.0813953 17.0054531,27.2332226 23.407506,27.9239203 C28.4091099,28.5159468 32.510425,31.9694352 34.0109062,36.6069767 L9.70311147,36.6069767 L9.70311147,36.6069767 Z" id="Shape"></path>
            </g>
        </g>
    </g>
</svg>